<svg width="208" height="78" viewBox="0 0 208 78" fill="none" xmlns="http://www.w3.org/2000/svg">
<path fill-rule="evenodd" clip-rule="evenodd" d="M193.257 31C193.257 42.55 183.84 52 172.329 52H33.6848C22.1747 52 12.7573 42.55 12.7573 31C12.7573 19.45 22.1747 10 33.6848 10H172.329C183.97 10 193.257 19.45 193.257 31Z" fill="#070707"/>
<g opacity="0.1" filter="url(#filter0_f)">
<path fill-rule="evenodd" clip-rule="evenodd" d="M187.24 39C187.24 49.45 178.555 58 167.941 58H40.0793C29.4645 58 20.7795 49.45 20.7795 39C20.7795 28.55 29.4645 20 40.0793 20H167.941C178.676 20 187.24 28.55 187.24 39Z" fill="#070707"/>
</g>
<path d="M46.6035 37.252C45.3555 37.252 44.3055 36.976 43.4535 36.424C42.6015 35.86 42.0015 35.098 41.6535 34.138L43.7775 32.896C44.2695 34.18 45.2355 34.822 46.6755 34.822C47.3715 34.822 47.8815 34.696 48.2055 34.444C48.5295 34.192 48.6915 33.874 48.6915 33.49C48.6915 33.046 48.4935 32.704 48.0975 32.464C47.7015 32.212 46.9935 31.942 45.9735 31.654C45.4095 31.486 44.9295 31.318 44.5335 31.15C44.1495 30.982 43.7595 30.76 43.3635 30.484C42.9795 30.196 42.6855 29.836 42.4815 29.404C42.2775 28.972 42.1755 28.468 42.1755 27.892C42.1755 26.752 42.5775 25.846 43.3815 25.174C44.1975 24.49 45.1755 24.148 46.3155 24.148C47.3355 24.148 48.2295 24.4 48.9975 24.904C49.7775 25.396 50.3835 26.086 50.8155 26.974L48.7275 28.18C48.2235 27.1 47.4195 26.56 46.3155 26.56C45.7995 26.56 45.3915 26.68 45.0915 26.92C44.8035 27.148 44.6595 27.448 44.6595 27.82C44.6595 28.216 44.8215 28.54 45.1455 28.792C45.4815 29.032 46.1175 29.296 47.0535 29.584C47.4375 29.704 47.7255 29.8 47.9175 29.872C48.1215 29.932 48.3915 30.034 48.7275 30.178C49.0755 30.31 49.3395 30.436 49.5195 30.556C49.7115 30.676 49.9275 30.838 50.1675 31.042C50.4075 31.246 50.5875 31.456 50.7075 31.672C50.8395 31.888 50.9475 32.152 51.0315 32.464C51.1275 32.764 51.1755 33.094 51.1755 33.454C51.1755 34.618 50.7495 35.542 49.8975 36.226C49.0575 36.91 47.9595 37.252 46.6035 37.252ZM54.8957 33.454C55.2077 34.582 56.0537 35.146 57.4337 35.146C58.3217 35.146 58.9937 34.846 59.4497 34.246L61.3217 35.326C60.4337 36.61 59.1257 37.252 57.3977 37.252C55.9097 37.252 54.7157 36.802 53.8157 35.902C52.9157 35.002 52.4657 33.868 52.4657 32.5C52.4657 31.144 52.9097 30.016 53.7977 29.116C54.6857 28.204 55.8257 27.748 57.2177 27.748C58.5377 27.748 59.6237 28.204 60.4757 29.116C61.3397 30.028 61.7717 31.156 61.7717 32.5C61.7717 32.8 61.7417 33.118 61.6817 33.454H54.8957ZM54.8597 31.654H59.4497C59.3177 31.042 59.0417 30.586 58.6217 30.286C58.2137 29.986 57.7457 29.836 57.2177 29.836C56.5937 29.836 56.0777 29.998 55.6697 30.322C55.2617 30.634 54.9917 31.078 54.8597 31.654ZM68.3967 27.748C69.3807 27.748 70.1907 28.078 70.8267 28.738C71.4747 29.398 71.7987 30.31 71.7987 31.474V37H69.4767V31.762C69.4767 31.162 69.3147 30.706 68.9907 30.394C68.6667 30.07 68.2347 29.908 67.6947 29.908C67.0947 29.908 66.6147 30.094 66.2547 30.466C65.8947 30.838 65.7147 31.396 65.7147 32.14V37H63.3927V28H65.7147V29.008C66.2787 28.168 67.1727 27.748 68.3967 27.748ZM80.6034 24.4H82.9254V37H80.6034V35.938C79.9194 36.814 78.9474 37.252 77.6874 37.252C76.4754 37.252 75.4374 36.796 74.5734 35.884C73.7214 34.96 73.2954 33.832 73.2954 32.5C73.2954 31.168 73.7214 30.046 74.5734 29.134C75.4374 28.21 76.4754 27.748 77.6874 27.748C78.9474 27.748 79.9194 28.186 80.6034 29.062V24.4ZM76.3194 34.336C76.7994 34.804 77.3994 35.038 78.1194 35.038C78.8394 35.038 79.4334 34.804 79.9014 34.336C80.3694 33.856 80.6034 33.244 80.6034 32.5C80.6034 31.756 80.3694 31.15 79.9014 30.682C79.4334 30.202 78.8394 29.962 78.1194 29.962C77.3994 29.962 76.7994 30.202 76.3194 30.682C75.8514 31.15 75.6174 31.756 75.6174 32.5C75.6174 33.244 75.8514 33.856 76.3194 34.336ZM99.503 27.748C100.535 27.748 101.357 28.084 101.969 28.756C102.593 29.428 102.905 30.328 102.905 31.456V37H100.583V31.618C100.583 31.078 100.451 30.658 100.187 30.358C99.923 30.058 99.551 29.908 99.0709 29.908C98.543 29.908 98.129 30.082 97.829 30.43C97.541 30.778 97.397 31.282 97.397 31.942V37H95.075V31.618C95.075 31.078 94.943 30.658 94.679 30.358C94.415 30.058 94.043 29.908 93.563 29.908C93.047 29.908 92.633 30.082 92.321 30.43C92.021 30.778 91.871 31.282 91.871 31.942V37H89.5489V28H91.871V28.954C92.411 28.15 93.245 27.748 94.373 27.748C95.477 27.748 96.293 28.18 96.821 29.044C97.421 28.18 98.315 27.748 99.503 27.748ZM106.839 33.454C107.151 34.582 107.997 35.146 109.377 35.146C110.265 35.146 110.937 34.846 111.393 34.246L113.265 35.326C112.377 36.61 111.069 37.252 109.341 37.252C107.853 37.252 106.659 36.802 105.759 35.902C104.859 35.002 104.409 33.868 104.409 32.5C104.409 31.144 104.853 30.016 105.741 29.116C106.629 28.204 107.769 27.748 109.161 27.748C110.481 27.748 111.567 28.204 112.419 29.116C113.283 30.028 113.715 31.156 113.715 32.5C113.715 32.8 113.685 33.118 113.625 33.454H106.839ZM106.803 31.654H111.393C111.261 31.042 110.985 30.586 110.565 30.286C110.157 29.986 109.689 29.836 109.161 29.836C108.537 29.836 108.021 29.998 107.613 30.322C107.205 30.634 106.935 31.078 106.803 31.654ZM117.127 30.556C117.127 30.796 117.283 30.994 117.595 31.15C117.919 31.294 118.309 31.426 118.765 31.546C119.221 31.654 119.677 31.798 120.133 31.978C120.589 32.146 120.973 32.434 121.285 32.842C121.609 33.25 121.771 33.76 121.771 34.372C121.771 35.296 121.423 36.01 120.727 36.514C120.043 37.006 119.185 37.252 118.153 37.252C116.305 37.252 115.045 36.538 114.373 35.11L116.389 33.976C116.653 34.756 117.241 35.146 118.153 35.146C118.981 35.146 119.395 34.888 119.395 34.372C119.395 34.132 119.233 33.94 118.909 33.796C118.597 33.64 118.213 33.502 117.757 33.382C117.301 33.262 116.845 33.112 116.389 32.932C115.933 32.752 115.543 32.47 115.219 32.086C114.907 31.69 114.751 31.198 114.751 30.61C114.751 29.722 115.075 29.026 115.723 28.522C116.383 28.006 117.199 27.748 118.171 27.748C118.903 27.748 119.569 27.916 120.169 28.252C120.769 28.576 121.243 29.044 121.591 29.656L119.611 30.736C119.323 30.124 118.843 29.818 118.171 29.818C117.871 29.818 117.619 29.884 117.415 30.016C117.223 30.148 117.127 30.328 117.127 30.556ZM124.931 30.556C124.931 30.796 125.087 30.994 125.399 31.15C125.723 31.294 126.113 31.426 126.569 31.546C127.025 31.654 127.481 31.798 127.937 31.978C128.393 32.146 128.777 32.434 129.089 32.842C129.413 33.25 129.575 33.76 129.575 34.372C129.575 35.296 129.227 36.01 128.531 36.514C127.847 37.006 126.989 37.252 125.957 37.252C124.109 37.252 122.849 36.538 122.177 35.11L124.193 33.976C124.457 34.756 125.045 35.146 125.957 35.146C126.785 35.146 127.199 34.888 127.199 34.372C127.199 34.132 127.037 33.94 126.713 33.796C126.401 33.64 126.017 33.502 125.561 33.382C125.105 33.262 124.649 33.112 124.193 32.932C123.737 32.752 123.347 32.47 123.023 32.086C122.711 31.69 122.555 31.198 122.555 30.61C122.555 29.722 122.879 29.026 123.527 28.522C124.187 28.006 125.003 27.748 125.975 27.748C126.707 27.748 127.373 27.916 127.973 28.252C128.573 28.576 129.047 29.044 129.395 29.656L127.415 30.736C127.127 30.124 126.647 29.818 125.975 29.818C125.675 29.818 125.423 29.884 125.219 30.016C125.027 30.148 124.931 30.328 124.931 30.556ZM137.785 28H140.107V37H137.785V35.938C137.089 36.814 136.111 37.252 134.851 37.252C133.651 37.252 132.619 36.796 131.755 35.884C130.903 34.96 130.477 33.832 130.477 32.5C130.477 31.168 130.903 30.046 131.755 29.134C132.619 28.21 133.651 27.748 134.851 27.748C136.111 27.748 137.089 28.186 137.785 29.062V28ZM133.501 34.336C133.969 34.804 134.563 35.038 135.283 35.038C136.003 35.038 136.597 34.804 137.065 34.336C137.545 33.856 137.785 33.244 137.785 32.5C137.785 31.756 137.545 31.15 137.065 30.682C136.597 30.202 136.003 29.962 135.283 29.962C134.563 29.962 133.969 30.202 133.501 30.682C133.033 31.15 132.799 31.756 132.799 32.5C132.799 33.244 133.033 33.856 133.501 34.336ZM149.107 28H151.375V36.568C151.375 37.96 150.913 39.022 149.989 39.754C149.077 40.486 147.973 40.852 146.677 40.852C145.705 40.852 144.847 40.666 144.103 40.294C143.371 39.922 142.807 39.376 142.411 38.656L144.391 37.522C144.847 38.362 145.633 38.782 146.749 38.782C147.481 38.782 148.057 38.59 148.477 38.206C148.897 37.822 149.107 37.276 149.107 36.568V35.596C148.423 36.508 147.463 36.964 146.227 36.964C144.955 36.964 143.887 36.52 143.023 35.632C142.171 34.732 141.745 33.64 141.745 32.356C141.745 31.084 142.177 29.998 143.041 29.098C143.905 28.198 144.967 27.748 146.227 27.748C147.463 27.748 148.423 28.204 149.107 29.116V28ZM144.769 34.138C145.249 34.594 145.855 34.822 146.587 34.822C147.319 34.822 147.919 34.594 148.387 34.138C148.867 33.67 149.107 33.076 149.107 32.356C149.107 31.648 148.867 31.066 148.387 30.61C147.919 30.142 147.319 29.908 146.587 29.908C145.855 29.908 145.249 30.142 144.769 30.61C144.301 31.066 144.067 31.648 144.067 32.356C144.067 33.076 144.301 33.67 144.769 34.138ZM155.443 33.454C155.755 34.582 156.601 35.146 157.981 35.146C158.869 35.146 159.541 34.846 159.997 34.246L161.869 35.326C160.981 36.61 159.673 37.252 157.945 37.252C156.457 37.252 155.263 36.802 154.363 35.902C153.463 35.002 153.013 33.868 153.013 32.5C153.013 31.144 153.457 30.016 154.345 29.116C155.233 28.204 156.373 27.748 157.765 27.748C159.085 27.748 160.171 28.204 161.023 29.116C161.887 30.028 162.319 31.156 162.319 32.5C162.319 32.8 162.289 33.118 162.229 33.454H155.443ZM155.407 31.654H159.997C159.865 31.042 159.589 30.586 159.169 30.286C158.761 29.986 158.293 29.836 157.765 29.836C157.141 29.836 156.625 29.998 156.217 30.322C155.809 30.634 155.539 31.078 155.407 31.654Z" fill="white"/>
<defs>
<filter id="filter0_f" x="0.779541" y="0" width="206.461" height="78" filterUnits="userSpaceOnUse" color-interpolation-filters="sRGB">
<feFlood flood-opacity="0" result="BackgroundImageFix"/>
<feBlend mode="normal" in="SourceGraphic" in2="BackgroundImageFix" result="shape"/>
<feGaussianBlur stdDeviation="10" result="effect1_foregroundBlur"/>
</filter>
</defs>
</svg>
